<svg width="871" height="390" viewBox="0 0 871 390" fill="none" xmlns="http://www.w3.org/2000/svg">
<path d="M719.176 370.25C713.509 370.25 708.426 367.667 703.926 362.5C699.592 357.167 696.176 349.917 693.676 340.75C691.342 331.583 690.176 321.083 690.176 309.25C690.176 297.417 691.342 286.917 693.676 277.75C696.176 268.583 699.509 261.417 703.676 256.25C708.009 251.083 713.009 248.5 718.676 248.5C723.842 248.5 728.259 250.667 731.926 255C735.759 259.167 738.676 265 740.676 272.5C742.842 279.833 743.926 288.25 743.926 297.75C743.926 300.417 742.592 301.75 739.926 301.75H695.926C695.759 304.25 695.676 306.75 695.676 309.25C695.676 319.917 696.676 329.5 698.676 338C700.676 346.333 703.426 352.917 706.926 357.75C710.592 362.583 714.676 365 719.176 365C723.509 365 727.176 363.167 730.176 359.5C733.342 355.833 735.842 351 737.676 345C738.176 343.5 739.092 342.75 740.426 342.75C741.592 342.75 742.342 343.25 742.676 344.25C743.009 345.083 743.009 346 742.676 347C740.342 354.167 737.259 359.833 733.426 364C729.592 368.167 724.842 370.25 719.176 370.25ZM718.676 253.75C713.009 253.75 708.092 257.75 703.926 265.75C699.926 273.75 697.342 284 696.176 296.5H738.676C738.342 284.333 736.342 274.167 732.676 266C729.176 257.833 724.509 253.75 718.676 253.75Z" fill="#8C7B73"/>
<path d="M672.52 369C670.853 369 670.02 368.167 670.02 366.5V193.25C670.02 191.583 670.853 190.75 672.52 190.75C674.353 190.75 675.27 191.583 675.27 193.25V366.5C675.27 368.167 674.353 369 672.52 369Z" fill="#8C7B73"/>
<path d="M614.412 369C608.079 369 602.995 366.833 599.162 362.5C595.495 358 593.662 352 593.662 344.5C593.662 328.333 601.829 316.667 618.162 309.5L640.162 300V276.25C640.162 261.25 634.995 253.75 624.662 253.75C616.662 253.75 609.662 258.75 603.662 268.75C603.162 269.583 602.495 270 601.662 270C599.829 270 598.912 269.167 598.912 267.5C598.912 267 599.079 266.417 599.412 265.75C605.912 254.25 614.329 248.5 624.662 248.5C638.495 248.5 645.412 257.75 645.412 276.25V358C645.412 361.833 646.912 363.75 649.912 363.75C651.579 363.75 652.995 363.167 654.162 362C654.662 361.5 655.245 361.25 655.912 361.25C657.745 361.25 658.662 362.167 658.662 364C658.662 364.667 658.412 365.25 657.912 365.75C655.745 367.917 653.079 369 649.912 369C643.412 369 640.162 365.333 640.162 358V355.25C634.662 360.417 629.912 364 625.912 366C622.079 368 618.245 369 614.412 369ZM599.162 344.5C599.162 350.667 600.495 355.417 603.162 358.75C605.829 362.083 609.579 363.75 614.412 363.75C617.912 363.75 621.579 362.667 625.412 360.5C629.245 358.333 634.162 354.5 640.162 349V305.75L620.412 314.25C606.245 320.417 599.162 330.5 599.162 344.5Z" fill="#8C7B73"/>
<path d="M578.699 369C576.866 369 575.949 368.167 575.949 366.5V359.25C570.949 366.583 564.949 370.25 557.949 370.25C552.116 370.25 547.199 367.667 543.199 362.5C539.366 357.167 536.449 349.917 534.449 340.75C532.616 331.583 531.699 321.083 531.699 309.25C531.699 297.417 532.616 287 534.449 278C536.449 268.833 539.366 261.667 543.199 256.5C547.199 251.167 552.116 248.5 557.949 248.5C564.949 248.5 570.949 252.167 575.949 259.5V193.25C575.949 191.583 576.866 190.75 578.699 190.75C580.366 190.75 581.199 191.583 581.199 193.25V366.5C581.199 368.167 580.366 369 578.699 369ZM557.949 253.75C553.283 253.75 549.366 256.167 546.199 261C543.199 265.833 540.949 272.417 539.449 280.75C537.949 289.083 537.199 298.583 537.199 309.25C537.199 319.917 537.949 329.5 539.449 338C540.949 346.333 543.199 352.917 546.199 357.75C549.366 362.583 553.283 365 557.949 365C561.116 365 564.366 363.75 567.699 361.25C571.033 358.75 573.783 355.167 575.949 350.5V268C573.783 263.5 571.033 260 567.699 257.5C564.366 255 561.116 253.75 557.949 253.75Z" fill="#8C7B73"/>
<path d="M499.99 369C493.324 369 487.49 366.75 482.49 362.25C477.657 357.75 474.74 352.167 473.74 345.5C473.574 344.667 473.74 344 474.24 343.5C474.907 342.833 475.657 342.5 476.49 342.5C477.824 342.5 478.657 343.25 478.99 344.75C479.824 350.083 482.157 354.583 485.99 358.25C489.99 361.917 494.657 363.75 499.99 363.75C502.99 363.75 505.99 363.083 508.99 361.75C512.157 360.417 514.74 358.167 516.74 355C518.907 351.667 519.99 347.333 519.99 342C519.99 336 518.574 330.833 515.74 326.5C513.074 322.167 509.324 318.167 504.49 314.5L498.99 310.25C491.324 304.25 485.824 298.5 482.49 293C479.157 287.5 477.49 281.417 477.49 274.75C477.49 266.417 479.907 260.167 484.74 256C489.74 251.833 495.074 249.75 500.74 249.75C505.574 249.75 509.824 251.167 513.49 254C517.157 256.667 519.99 260.417 521.99 265.25C522.324 265.917 522.24 266.667 521.74 267.5C521.407 268.333 520.74 268.75 519.74 268.75C518.574 268.75 517.74 268.25 517.24 267.25C513.74 259.083 508.24 255 500.74 255C495.574 255 491.324 256.75 487.99 260.25C484.657 263.583 482.99 268.417 482.99 274.75C482.99 280.917 484.324 286.25 486.99 290.75C489.824 295.083 494.907 300.167 502.24 306L508.24 310.75C513.407 314.75 517.574 319.25 520.74 324.25C523.907 329.25 525.49 335.167 525.49 342C525.49 350.167 523.074 356.75 518.24 361.75C513.407 366.583 507.324 369 499.99 369Z" fill="#8C7B73"/>
<path d="M425.654 369C423.988 369 423.154 368.167 423.154 366.5V252.25C423.154 250.583 423.988 249.75 425.654 249.75C427.488 249.75 428.404 250.583 428.404 252.25V262.25C431.738 257.25 435.321 253.75 439.154 251.75C442.988 249.583 447.154 248.5 451.654 248.5C465.488 248.5 472.404 258.333 472.404 278C472.404 280 471.571 281 469.904 281C468.071 281 467.154 280 467.154 278C467.154 269 465.821 262.75 463.154 259.25C460.488 255.583 456.654 253.75 451.654 253.75C446.488 253.75 441.904 255.333 437.904 258.5C434.071 261.5 430.904 265.333 428.404 270V366.5C428.404 368.167 427.488 369 425.654 369Z" fill="#8C7B73"/>
<path d="M382.719 249.75C384.053 249.75 384.886 250.417 385.219 251.75L413.219 365.75C413.386 366.583 413.219 367.333 412.719 368C412.219 368.667 411.553 369 410.719 369C409.386 369 408.553 368.333 408.219 367L382.469 262.25L356.969 367C356.636 368.333 355.803 369 354.469 369C353.636 369 352.969 368.667 352.469 368C351.803 367.333 351.636 366.583 351.969 365.75L379.969 251.75C380.469 250.417 381.386 249.75 382.719 249.75Z" fill="#8C7B73"/>
<path d="M247.646 369C245.98 369 245.146 368.167 245.146 366.5V252.25C245.146 250.583 245.98 249.75 247.646 249.75C249.48 249.75 250.396 250.583 250.396 252.25V262.25C253.73 257.25 257.313 253.75 261.146 251.75C264.98 249.583 269.146 248.5 273.646 248.5C287.48 248.5 294.396 257.75 294.396 276.25V366.5C294.396 368.167 293.48 369 291.646 369C289.98 369 289.146 368.167 289.146 366.5V276.25C289.146 268.083 287.813 262.333 285.146 259C282.48 255.5 278.646 253.75 273.646 253.75C268.48 253.75 263.896 255.333 259.896 258.5C256.063 261.5 252.896 265.333 250.396 270V366.5C250.396 368.167 249.48 369 247.646 369Z" fill="#8C7B73"/>
<path d="M189.539 369C183.206 369 178.122 366.833 174.289 362.5C170.622 358 168.789 352 168.789 344.5C168.789 328.333 176.956 316.667 193.289 309.5L215.289 300V276.25C215.289 261.25 210.122 253.75 199.789 253.75C191.789 253.75 184.789 258.75 178.789 268.75C178.289 269.583 177.622 270 176.789 270C174.956 270 174.039 269.167 174.039 267.5C174.039 267 174.206 266.417 174.539 265.75C181.039 254.25 189.456 248.5 199.789 248.5C213.622 248.5 220.539 257.75 220.539 276.25V358C220.539 361.833 222.039 363.75 225.039 363.75C226.706 363.75 228.122 363.167 229.289 362C229.789 361.5 230.372 361.25 231.039 361.25C232.872 361.25 233.789 362.167 233.789 364C233.789 364.667 233.539 365.25 233.039 365.75C230.872 367.917 228.206 369 225.039 369C218.539 369 215.289 365.333 215.289 358V355.25C209.789 360.417 205.039 364 201.039 366C197.206 368 193.372 369 189.539 369ZM174.289 344.5C174.289 350.667 175.622 355.417 178.289 358.75C180.956 362.083 184.706 363.75 189.539 363.75C193.039 363.75 196.706 362.667 200.539 360.5C204.372 358.333 209.289 354.5 215.289 349V305.75L195.539 314.25C181.372 320.417 174.289 330.5 174.289 344.5Z" fill="#8C7B73"/>
<path d="M135.5 369C134.167 369 133.333 368.333 133 367L105 253C104.833 252.167 105 251.417 105.5 250.75C106 250.083 106.667 249.75 107.5 249.75C108.833 249.75 109.667 250.417 110 251.75L135.75 356.5L161.25 251.75C161.583 250.417 162.417 249.75 163.75 249.75C164.583 249.75 165.25 250.083 165.75 250.75C166.417 251.417 166.583 252.167 166.25 253L138.25 367C137.75 368.333 136.833 369 135.5 369Z" fill="#8C7B73"/>
<path d="M429.334 189.25C423.001 189.25 417.917 187.083 414.084 182.75C410.417 178.25 408.584 172.25 408.584 164.75C408.584 148.583 416.751 136.917 433.084 129.75L455.084 120.25V96.5C455.084 81.5 449.917 74 439.584 74C431.584 74 424.584 79 418.584 89C418.084 89.8333 417.417 90.25 416.584 90.25C414.751 90.25 413.834 89.4167 413.834 87.75C413.834 87.25 414.001 86.6667 414.334 86C420.834 74.5 429.251 68.75 439.584 68.75C453.417 68.75 460.334 78 460.334 96.5V178.25C460.334 182.083 461.834 184 464.834 184C466.501 184 467.917 183.417 469.084 182.25C469.584 181.75 470.167 181.5 470.834 181.5C472.667 181.5 473.584 182.417 473.584 184.25C473.584 184.917 473.334 185.5 472.834 186C470.667 188.167 468.001 189.25 464.834 189.25C458.334 189.25 455.084 185.583 455.084 178.25V175.5C449.584 180.667 444.834 184.25 440.834 186.25C437.001 188.25 433.167 189.25 429.334 189.25ZM414.084 164.75C414.084 170.917 415.417 175.667 418.084 179C420.751 182.333 424.501 184 429.334 184C432.834 184 436.501 182.917 440.334 180.75C444.167 178.583 449.084 174.75 455.084 169.25V126L435.334 134.5C421.167 140.667 414.084 150.75 414.084 164.75Z" fill="#E66533"/>
<path d="M367.674 190.5C353.84 190.5 346.924 181.25 346.924 162.75V72.5C346.924 70.8333 347.84 70 349.674 70C351.34 70 352.174 70.8333 352.174 72.5V162.75C352.174 170.917 353.507 176.75 356.174 180.25C358.84 183.583 362.674 185.25 367.674 185.25C372.84 185.25 377.34 183.75 381.174 180.75C385.174 177.583 388.424 173.667 390.924 169V72.5C390.924 70.8333 391.84 70 393.674 70C395.34 70 396.174 70.8333 396.174 72.5V186.75C396.174 188.417 395.34 189.25 393.674 189.25C391.84 189.25 390.924 188.417 390.924 186.75V176.75C387.59 181.75 384.007 185.333 380.174 187.5C376.34 189.5 372.174 190.5 367.674 190.5Z" fill="#E66533"/>
<path d="M285.264 189.25C283.597 189.25 282.764 188.417 282.764 186.75V13.5C282.764 11.8333 283.597 11 285.264 11C287.097 11 288.014 11.8333 288.014 13.5V82.5C291.347 77.5 294.93 74 298.764 72C302.597 69.8333 306.764 68.75 311.264 68.75C325.097 68.75 332.014 78 332.014 96.5V186.75C332.014 188.417 331.097 189.25 329.264 189.25C327.597 189.25 326.764 188.417 326.764 186.75V96.5C326.764 88.3333 325.43 82.5833 322.764 79.25C320.097 75.75 316.264 74 311.264 74C306.097 74 301.514 75.5833 297.514 78.75C293.68 81.75 290.514 85.5833 288.014 90.25V186.75C288.014 188.417 287.097 189.25 285.264 189.25Z" fill="#E66533"/>
<path d="M246.055 189.25C239.388 189.25 233.555 187 228.555 182.5C223.721 178 220.805 172.417 219.805 165.75C219.638 164.917 219.805 164.25 220.305 163.75C220.971 163.083 221.721 162.75 222.555 162.75C223.888 162.75 224.721 163.5 225.055 165C225.888 170.333 228.221 174.833 232.055 178.5C236.055 182.167 240.721 184 246.055 184C249.055 184 252.055 183.333 255.055 182C258.221 180.667 260.805 178.417 262.805 175.25C264.971 171.917 266.055 167.583 266.055 162.25C266.055 156.25 264.638 151.083 261.805 146.75C259.138 142.417 255.388 138.417 250.555 134.75L245.055 130.5C237.388 124.5 231.888 118.75 228.555 113.25C225.221 107.75 223.555 101.667 223.555 95C223.555 86.6667 225.971 80.4167 230.805 76.25C235.805 72.0833 241.138 70 246.805 70C251.638 70 255.888 71.4167 259.555 74.25C263.221 76.9167 266.055 80.6667 268.055 85.5C268.388 86.1667 268.305 86.9167 267.805 87.75C267.471 88.5833 266.805 89 265.805 89C264.638 89 263.805 88.5 263.305 87.5C259.805 79.3333 254.305 75.25 246.805 75.25C241.638 75.25 237.388 77 234.055 80.5C230.721 83.8333 229.055 88.6667 229.055 95C229.055 101.167 230.388 106.5 233.055 111C235.888 115.333 240.971 120.417 248.305 126.25L254.305 131C259.471 135 263.638 139.5 266.805 144.5C269.971 149.5 271.555 155.417 271.555 162.25C271.555 170.417 269.138 177 264.305 182C259.471 186.833 253.388 189.25 246.055 189.25Z" fill="#E66533"/>
<path d="M184.906 190.5C179.24 190.5 174.24 187.917 169.906 182.75C165.74 177.583 162.406 170.417 159.906 161.25C157.573 152.083 156.406 141.5 156.406 129.5C156.406 117.5 157.573 107 159.906 98C162.406 88.8333 165.74 81.6667 169.906 76.5C174.24 71.3333 179.24 68.75 184.906 68.75C190.573 68.75 195.49 71.4167 199.656 76.75C203.99 81.9167 207.406 89.0833 209.906 98.25C212.406 107.25 213.656 117.667 213.656 129.5C213.656 141.333 212.406 151.833 209.906 161C207.406 170.167 203.99 177.417 199.656 182.75C195.49 187.917 190.573 190.5 184.906 190.5ZM184.906 185.25C189.406 185.25 193.406 182.833 196.906 178C200.406 173.167 203.156 166.583 205.156 158.25C207.156 149.75 208.156 140.167 208.156 129.5C208.156 118.833 207.156 109.333 205.156 101C203.156 92.6667 200.406 86.0833 196.906 81.25C193.406 76.4167 189.406 74 184.906 74C180.573 74 176.656 76.4167 173.156 81.25C169.656 86.0833 166.906 92.6667 164.906 101C162.906 109.333 161.906 118.833 161.906 129.5C161.906 140.167 162.906 149.75 164.906 158.25C166.906 166.583 169.656 173.167 173.156 178C176.656 182.833 180.573 185.25 184.906 185.25Z" fill="#E66533"/>
<path d="M104.5 236C102.833 236 102 235.083 102 233.25C102 231.583 102.833 230.75 104.5 230.75C115.5 230.75 123.5 228.083 128.5 222.75C133.667 217.417 136.25 209 136.25 197.5V72.5C136.25 70.8333 137.083 70 138.75 70C140.583 70 141.5 70.8333 141.5 72.5V197.5C141.5 223.167 129.167 236 104.5 236Z" fill="#E66533"/>
</svg>
