<svg width="1049" height="225" viewBox="0 0 1049 225" fill="none" xmlns="http://www.w3.org/2000/svg">
<g clip-path="url(#clip0_23_2)">
<path d="M1012.18 179.5C1006.51 179.5 1001.43 176.917 996.926 171.75C992.592 166.417 989.176 159.167 986.676 150C984.342 140.833 983.176 130.333 983.176 118.5C983.176 106.667 984.342 96.1667 986.676 87C989.176 77.8333 992.509 70.6667 996.676 65.5C1001.01 60.3333 1006.01 57.75 1011.68 57.75C1016.84 57.75 1021.26 59.9167 1024.93 64.25C1028.76 68.4167 1031.68 74.25 1033.68 81.75C1035.84 89.0833 1036.93 97.5 1036.93 107C1036.93 109.667 1035.59 111 1032.93 111H988.926C988.759 113.5 988.676 116 988.676 118.5C988.676 129.167 989.676 138.75 991.676 147.25C993.676 155.583 996.426 162.167 999.926 167C1003.59 171.833 1007.68 174.25 1012.18 174.25C1016.51 174.25 1020.18 172.417 1023.18 168.75C1026.34 165.083 1028.84 160.25 1030.68 154.25C1031.18 152.75 1032.09 152 1033.43 152C1034.59 152 1035.34 152.5 1035.68 153.5C1036.01 154.333 1036.01 155.25 1035.68 156.25C1033.34 163.417 1030.26 169.083 1026.43 173.25C1022.59 177.417 1017.84 179.5 1012.18 179.5ZM1011.68 63C1006.01 63 1001.09 67 996.926 75C992.926 83 990.342 93.25 989.176 105.75H1031.68C1031.34 93.5833 1029.34 83.4167 1025.68 75.25C1022.18 67.0833 1017.51 63 1011.68 63Z" fill="#8C7B73"/>
<path d="M965.52 178.25C963.853 178.25 963.02 177.417 963.02 175.75V2.50002C963.02 0.83334 963.853 0 965.52 0C967.353 0 968.27 0.83334 968.27 2.50002V175.75C968.27 177.417 967.353 178.25 965.52 178.25Z" fill="#8C7B73"/>
<path d="M907.412 178.25C901.079 178.25 895.995 176.083 892.162 171.75C888.495 167.25 886.662 161.25 886.662 153.75C886.662 137.583 894.829 125.917 911.162 118.75L933.162 109.25V85.5C933.162 70.5 927.995 63 917.662 63C909.662 63 902.662 68 896.662 78C896.162 78.8333 895.495 79.25 894.662 79.25C892.829 79.25 891.912 78.4167 891.912 76.75C891.912 76.25 892.079 75.6667 892.412 75C898.912 63.5 907.329 57.75 917.662 57.75C931.495 57.75 938.412 67 938.412 85.5V167.25C938.412 171.083 939.912 173 942.912 173C944.579 173 945.995 172.417 947.162 171.25C947.662 170.75 948.245 170.5 948.912 170.5C950.745 170.5 951.662 171.417 951.662 173.25C951.662 173.917 951.412 174.5 950.912 175C948.745 177.167 946.079 178.25 942.912 178.25C936.412 178.25 933.162 174.583 933.162 167.25V164.5C927.662 169.667 922.912 173.25 918.912 175.25C915.079 177.25 911.245 178.25 907.412 178.25ZM892.162 153.75C892.162 159.917 893.495 164.667 896.162 168C898.829 171.333 902.579 173 907.412 173C910.912 173 914.579 171.917 918.412 169.75C922.245 167.583 927.162 163.75 933.162 158.25V115L913.412 123.5C899.245 129.667 892.162 139.75 892.162 153.75Z" fill="#8C7B73"/>
<path d="M871.699 178.25C869.866 178.25 868.949 177.417 868.949 175.75V168.5C863.949 175.833 857.949 179.5 850.949 179.5C845.116 179.5 840.199 176.917 836.199 171.75C832.366 166.417 829.449 159.167 827.449 150C825.616 140.833 824.699 130.333 824.699 118.5C824.699 106.667 825.616 96.25 827.449 87.25C829.449 78.0833 832.366 70.9167 836.199 65.75C840.199 60.4167 845.116 57.75 850.949 57.75C857.949 57.75 863.949 61.4167 868.949 68.75V2.50002C868.949 0.83334 869.866 0 871.699 0C873.366 0 874.199 0.83334 874.199 2.50002V175.75C874.199 177.417 873.366 178.25 871.699 178.25ZM850.949 63C846.283 63 842.366 65.4167 839.199 70.25C836.199 75.0833 833.949 81.6667 832.449 90C830.949 98.3334 830.199 107.833 830.199 118.5C830.199 129.167 830.949 138.75 832.449 147.25C833.949 155.583 836.199 162.167 839.199 167C842.366 171.833 846.283 174.25 850.949 174.25C854.116 174.25 857.366 173 860.699 170.5C864.033 168 866.783 164.417 868.949 159.75V77.25C866.783 72.75 864.033 69.25 860.699 66.75C857.366 64.25 854.116 63 850.949 63Z" fill="#8C7B73"/>
<path d="M792.99 178.25C786.324 178.25 780.49 176 775.49 171.5C770.657 167 767.74 161.417 766.74 154.75C766.574 153.917 766.74 153.25 767.24 152.75C767.907 152.083 768.657 151.75 769.49 151.75C770.824 151.75 771.657 152.5 771.99 154C772.824 159.333 775.157 163.833 778.99 167.5C782.99 171.167 787.657 173 792.99 173C795.99 173 798.99 172.333 801.99 171C805.157 169.667 807.74 167.417 809.74 164.25C811.907 160.917 812.99 156.583 812.99 151.25C812.99 145.25 811.574 140.083 808.74 135.75C806.074 131.417 802.324 127.417 797.49 123.75L791.99 119.5C784.324 113.5 778.824 107.75 775.49 102.25C772.157 96.75 770.49 90.6667 770.49 84C770.49 75.6667 772.907 69.4167 777.74 65.25C782.74 61.0833 788.074 59 793.74 59C798.574 59 802.824 60.4167 806.49 63.25C810.157 65.9167 812.99 69.6667 814.99 74.5C815.324 75.1667 815.24 75.9167 814.74 76.75C814.407 77.5833 813.74 78 812.74 78C811.574 78 810.74 77.5 810.24 76.5C806.74 68.3333 801.24 64.25 793.74 64.25C788.574 64.25 784.324 66 780.99 69.5C777.657 72.8333 775.99 77.6667 775.99 84C775.99 90.1667 777.324 95.5 779.99 100C782.824 104.333 787.907 109.417 795.24 115.25L801.24 120C806.407 124 810.574 128.5 813.74 133.5C816.907 138.5 818.49 144.417 818.49 151.25C818.49 159.417 816.074 166 811.24 171C806.407 175.833 800.324 178.25 792.99 178.25Z" fill="#8C7B73"/>
<path d="M718.654 178.25C716.988 178.25 716.154 177.417 716.154 175.75V61.5C716.154 59.8333 716.988 59 718.654 59C720.488 59 721.404 59.8333 721.404 61.5V71.5C724.738 66.5 728.321 63 732.154 61C735.988 58.8333 740.154 57.75 744.654 57.75C758.488 57.75 765.404 67.5833 765.404 87.25C765.404 89.25 764.571 90.25 762.904 90.25C761.071 90.25 760.154 89.25 760.154 87.25C760.154 78.25 758.821 72 756.154 68.5C753.488 64.8333 749.654 63 744.654 63C739.488 63 734.904 64.5833 730.904 67.75C727.071 70.75 723.904 74.5833 721.404 79.25V175.75C721.404 177.417 720.488 178.25 718.654 178.25Z" fill="#8C7B73"/>
<path d="M675.719 59C677.053 59 677.886 59.6667 678.219 61L706.219 175C706.386 175.833 706.219 176.583 705.719 177.25C705.219 177.917 704.553 178.25 703.719 178.25C702.386 178.25 701.553 177.583 701.219 176.25L675.469 71.5L649.969 176.25C649.636 177.583 648.803 178.25 647.469 178.25C646.636 178.25 645.969 177.917 645.469 177.25C644.803 176.583 644.636 175.833 644.969 175L672.969 61C673.469 59.6667 674.386 59 675.719 59Z" fill="#8C7B73"/>
<path d="M552.646 178.25C550.98 178.25 550.146 177.417 550.146 175.75V61.5C550.146 59.8333 550.98 59 552.646 59C554.48 59 555.396 59.8333 555.396 61.5V71.5C558.73 66.5 562.313 63 566.146 61C569.98 58.8333 574.146 57.75 578.646 57.75C592.48 57.75 599.396 67 599.396 85.5V175.75C599.396 177.417 598.48 178.25 596.646 178.25C594.98 178.25 594.146 177.417 594.146 175.75V85.5C594.146 77.3333 592.813 71.5833 590.146 68.25C587.48 64.75 583.646 63 578.646 63C573.48 63 568.896 64.5833 564.896 67.75C561.063 70.75 557.896 74.5833 555.396 79.25V175.75C555.396 177.417 554.48 178.25 552.646 178.25Z" fill="#8C7B73"/>
<path d="M494.539 178.25C488.206 178.25 483.122 176.083 479.289 171.75C475.622 167.25 473.789 161.25 473.789 153.75C473.789 137.583 481.956 125.917 498.289 118.75L520.289 109.25V85.5C520.289 70.5 515.122 63 504.789 63C496.789 63 489.789 68 483.789 78C483.289 78.8333 482.622 79.25 481.789 79.25C479.956 79.25 479.039 78.4167 479.039 76.75C479.039 76.25 479.206 75.6667 479.539 75C486.039 63.5 494.456 57.75 504.789 57.75C518.622 57.75 525.539 67 525.539 85.5V167.25C525.539 171.083 527.039 173 530.039 173C531.706 173 533.122 172.417 534.289 171.25C534.789 170.75 535.372 170.5 536.039 170.5C537.872 170.5 538.789 171.417 538.789 173.25C538.789 173.917 538.539 174.5 538.039 175C535.872 177.167 533.206 178.25 530.039 178.25C523.539 178.25 520.289 174.583 520.289 167.25V164.5C514.789 169.667 510.039 173.25 506.039 175.25C502.206 177.25 498.372 178.25 494.539 178.25ZM479.289 153.75C479.289 159.917 480.622 164.667 483.289 168C485.956 171.333 489.706 173 494.539 173C498.039 173 501.706 171.917 505.539 169.75C509.372 167.583 514.289 163.75 520.289 158.25V115L500.539 123.5C486.372 129.667 479.289 139.75 479.289 153.75Z" fill="#8C7B73"/>
<path d="M440.5 178.25C439.167 178.25 438.333 177.583 438 176.25L410 62.25C409.833 61.4167 410 60.6667 410.5 60C411 59.3333 411.667 59 412.5 59C413.833 59 414.667 59.6667 415 61L440.75 165.75L466.25 61C466.583 59.6667 467.417 59 468.75 59C469.583 59 470.25 59.3333 470.75 60C471.417 60.6667 471.583 61.4167 471.25 62.25L443.25 176.25C442.75 177.583 441.833 178.25 440.5 178.25Z" fill="#8C7B73"/>
<path d="M327.334 178.5C321.001 178.5 315.917 176.333 312.084 172C308.417 167.5 306.584 161.5 306.584 154C306.584 137.833 314.751 126.167 331.084 119L353.084 109.5V85.75C353.084 70.75 347.917 63.25 337.584 63.25C329.584 63.25 322.584 68.25 316.584 78.25C316.084 79.0833 315.417 79.5 314.584 79.5C312.751 79.5 311.834 78.6667 311.834 77C311.834 76.5 312.001 75.9167 312.334 75.25C318.834 63.75 327.251 58 337.584 58C351.417 58 358.334 67.25 358.334 85.75V167.5C358.334 171.333 359.834 173.25 362.834 173.25C364.501 173.25 365.917 172.667 367.084 171.5C367.584 171 368.167 170.75 368.834 170.75C370.667 170.75 371.584 171.667 371.584 173.5C371.584 174.167 371.334 174.75 370.834 175.25C368.667 177.417 366.001 178.5 362.834 178.5C356.334 178.5 353.084 174.833 353.084 167.5V164.75C347.584 169.917 342.834 173.5 338.834 175.5C335.001 177.5 331.167 178.5 327.334 178.5ZM312.084 154C312.084 160.167 313.417 164.917 316.084 168.25C318.751 171.583 322.501 173.25 327.334 173.25C330.834 173.25 334.501 172.167 338.334 170C342.167 167.833 347.084 164 353.084 158.5V115.25L333.334 123.75C319.167 129.917 312.084 140 312.084 154Z" fill="#E66533"/>
<path d="M265.674 179.75C251.84 179.75 244.924 170.5 244.924 152V61.75C244.924 60.0833 245.84 59.25 247.674 59.25C249.34 59.25 250.174 60.0833 250.174 61.75V152C250.174 160.167 251.507 166 254.174 169.5C256.84 172.833 260.674 174.5 265.674 174.5C270.84 174.5 275.34 173 279.174 170C283.174 166.833 286.424 162.917 288.924 158.25V61.75C288.924 60.0833 289.84 59.25 291.674 59.25C293.34 59.25 294.174 60.0833 294.174 61.75V176C294.174 177.667 293.34 178.5 291.674 178.5C289.84 178.5 288.924 177.667 288.924 176V166C285.59 171 282.007 174.583 278.174 176.75C274.34 178.75 270.174 179.75 265.674 179.75Z" fill="#E66533"/>
<path d="M183.264 178.5C181.597 178.5 180.764 177.667 180.764 176V2.75001C180.764 1.08334 181.597 0.25 183.264 0.25C185.097 0.25 186.014 1.08334 186.014 2.75001V71.75C189.347 66.75 192.93 63.25 196.764 61.25C200.597 59.0833 204.764 58 209.264 58C223.097 58 230.014 67.25 230.014 85.75V176C230.014 177.667 229.097 178.5 227.264 178.5C225.597 178.5 224.764 177.667 224.764 176V85.75C224.764 77.5833 223.43 71.8333 220.764 68.5C218.097 65 214.264 63.25 209.264 63.25C204.097 63.25 199.514 64.8333 195.514 68C191.68 71 188.514 74.8333 186.014 79.5V176C186.014 177.667 185.097 178.5 183.264 178.5Z" fill="#E66533"/>
<path d="M144.055 178.5C137.388 178.5 131.555 176.25 126.555 171.75C121.721 167.25 118.805 161.667 117.805 155C117.638 154.167 117.805 153.5 118.305 153C118.971 152.333 119.721 152 120.555 152C121.888 152 122.721 152.75 123.055 154.25C123.888 159.583 126.221 164.083 130.055 167.75C134.055 171.417 138.721 173.25 144.055 173.25C147.055 173.25 150.055 172.583 153.055 171.25C156.221 169.917 158.805 167.667 160.805 164.5C162.971 161.167 164.055 156.833 164.055 151.5C164.055 145.5 162.638 140.333 159.805 136C157.138 131.667 153.388 127.667 148.555 124L143.055 119.75C135.388 113.75 129.888 108 126.555 102.5C123.221 97 121.555 90.9167 121.555 84.25C121.555 75.9167 123.971 69.6667 128.805 65.5C133.805 61.3333 139.138 59.25 144.805 59.25C149.638 59.25 153.888 60.6667 157.555 63.5C161.221 66.1667 164.055 69.9167 166.055 74.75C166.388 75.4167 166.305 76.1667 165.805 77C165.471 77.8333 164.805 78.25 163.805 78.25C162.638 78.25 161.805 77.75 161.305 76.75C157.805 68.5833 152.305 64.5 144.805 64.5C139.638 64.5 135.388 66.25 132.055 69.75C128.721 73.0833 127.055 77.9167 127.055 84.25C127.055 90.4167 128.388 95.75 131.055 100.25C133.888 104.583 138.971 109.667 146.305 115.5L152.305 120.25C157.471 124.25 161.638 128.75 164.805 133.75C167.971 138.75 169.555 144.667 169.555 151.5C169.555 159.667 167.138 166.25 162.305 171.25C157.471 176.083 151.388 178.5 144.055 178.5Z" fill="#E66533"/>
<path d="M82.9063 179.75C77.2396 179.75 72.2396 177.167 67.9062 172C63.7396 166.833 60.4063 159.667 57.9062 150.5C55.5729 141.333 54.4062 130.75 54.4062 118.75C54.4062 106.75 55.5729 96.25 57.9062 87.25C60.4063 78.0833 63.7396 70.9167 67.9062 65.75C72.2396 60.5833 77.2396 58 82.9063 58C88.5729 58 93.4896 60.6667 97.6562 66C101.99 71.1667 105.406 78.3333 107.906 87.5C110.406 96.5 111.656 106.917 111.656 118.75C111.656 130.583 110.406 141.083 107.906 150.25C105.406 159.417 101.99 166.667 97.6562 172C93.4896 177.167 88.5729 179.75 82.9063 179.75ZM82.9063 174.5C87.4063 174.5 91.4062 172.083 94.9062 167.25C98.4062 162.417 101.156 155.833 103.156 147.5C105.156 139 106.156 129.417 106.156 118.75C106.156 108.083 105.156 98.5833 103.156 90.25C101.156 81.9167 98.4062 75.3333 94.9062 70.5C91.4062 65.6667 87.4063 63.25 82.9063 63.25C78.5729 63.25 74.6563 65.6667 71.1563 70.5C67.6563 75.3333 64.9062 81.9167 62.9062 90.25C60.9062 98.5833 59.9062 108.083 59.9062 118.75C59.9062 129.417 60.9062 139 62.9062 147.5C64.9062 155.833 67.6563 162.417 71.1563 167.25C74.6563 172.083 78.5729 174.5 82.9063 174.5Z" fill="#E66533"/>
<path d="M2.5 225.25C0.833334 225.25 0 224.333 0 222.5C0 220.833 0.833334 220 2.5 220C13.5 220 21.5 217.333 26.5 212C31.6667 206.667 34.25 198.25 34.25 186.75V61.75C34.25 60.0833 35.0833 59.25 36.75 59.25C38.5833 59.25 39.5 60.0833 39.5 61.75V186.75C39.5 212.417 27.1667 225.25 2.5 225.25Z" fill="#E66533"/>
</g>
<defs>
<clipPath id="clip0_23_2">
<rect width="1049" height="225" fill="white"/>
</clipPath>
</defs>
</svg>
